<?xml version="1.0" encoding="UTF-8"?>
<svg id="rakka-logo-full" xmlns="http://www.w3.org/2000/svg" viewBox="0 0 1390.03 209.13">
  <g>
    <path fill="#C8F135" d="M191.29,0c15.09,3.14,27.32,8.43,36.63,15.88,16.11,12.89,24.17,33.68,24.17,62.36,0,1.01-.05,1.97-.07,2.95.04,1.31.07,2.61.07,3.96,0,26.36-7.09,46.19-21.18,59.56l24.46,42.23L415.57,0h-224.28Z"/>
    <path fill="#F0F0F0" d="M0,0h139.96C173.36,0,198.12,6.45,214.23,19.33c16.11,12.89,24.17,33.68,24.17,62.36,0,36.94-13.84,61.13-41.53,72.57l46.56,54.87h-81.69l-38.67-45.75h-54.46v45.75H0V0ZM139.96,60.72h-71.34v41.94h71.34c19.97,0,29.95-6.99,29.95-20.97s-9.99-20.97-29.95-20.97Z"/>
    <path fill="#C8F135" d="M525,0h-87.27l-177.68,209.13h81.69l23.15-27.37h91.49v27.37h68.62V0ZM456.38,126.62h-44.66l44.66-52.42v52.42Z"/>
    <path fill="#F0F0F0" d="M546.49,0h68.62v95.03L695.99,0h81.69l-83.6,98.16,94.22,110.96h-81.69l-91.49-107.29v107.29h-68.62V0Z"/>
    <path fill="#F0F0F0" d="M795.1,0h68.62v95.03L944.6,0h81.69l-83.6,98.16,94.22,110.96h-81.69l-91.49-107.29v107.29h-68.62V0Z"/>
    <path fill="#F0F0F0" d="M1043.72,0h87.27l177.68,209.13h-81.69l-23.15-27.37h-91.49v27.37h-68.62V0ZM1112.34,126.62h44.66l-44.66-52.42v52.42Z"/>
    <path fill="#C8F135" d="M1324.41,197.69c-7.62-7.62-11.44-16.66-11.44-27.09s3.81-19.74,11.44-27.37c7.44-7.44,16.47-11.16,27.09-11.16s19.92,3.72,27.37,11.16c7.44,7.44,11.16,16.57,11.16,27.37s-3.72,19.65-11.16,27.09c-7.35,7.62-16.47,11.44-27.37,11.44s-19.74-3.81-27.09-11.44Z"/>
  </g>
</svg>
